<svg width="30" height="27" viewBox="0 0 30 27" fill="none" xmlns="http://www.w3.org/2000/svg">
<path d="M30 3.19594C28.8958 3.73903 27.7097 4.1045 26.4648 4.26935C27.7362 3.42595 28.7112 2.09059 29.1704 0.498368C27.982 1.27914 26.6644 1.84651 25.2613 2.1532C24.1387 0.828056 22.5395 0 20.7696 0C17.3705 0 14.6152 3.05282 14.6152 6.81613C14.6152 7.35028 14.6706 7.87164 14.7744 8.36873C9.65963 8.08505 5.12519 5.37086 2.08838 1.24592C1.55994 2.25287 1.25649 3.4234 1.25649 4.67443C1.25649 7.03848 2.34222 9.12523 3.99331 10.3469C2.98489 10.3111 2.03531 10.0044 1.20572 9.49453C1.20572 9.52392 1.20572 9.55076 1.20572 9.58015C1.20572 12.8834 3.32641 15.6385 6.14284 16.2634C5.62709 16.4193 5.0825 16.5023 4.5206 16.5023C4.12484 16.5023 3.73832 16.4589 3.36333 16.3809C4.14676 19.0887 6.41975 21.0605 9.11273 21.1154C7.00704 22.9441 4.35329 24.0341 1.46879 24.0341C0.972655 24.0341 0.482289 24.0021 0 23.9382C2.72413 25.8716 5.95823 27 9.43464 27C20.7557 27 26.9447 16.6135 26.9447 7.60585C26.9447 7.31066 26.939 7.01675 26.9274 6.72412C28.1308 5.76189 29.175 4.56198 30 3.19594Z" fill="white"/>
</svg>
