<svg width="30" height="30" viewBox="0 0 30 30" fill="none" xmlns="http://www.w3.org/2000/svg">
<path d="M26.4286 0H3.57143C1.6 0 0 1.6 0 3.57143V26.4286C0 28.4 1.6 30 3.57143 30H26.4286C28.4 30 30 28.4 30 26.4286V3.57143C30 1.6 28.4 0 26.4286 0ZM23.5714 10.7143H22.1429C20.6143 10.7143 20 11.0714 20 12.1429V14.2857H23.5714L22.8571 17.8571H20V28.5714H16.4286V17.8571H13.5714V14.2857H16.4286V12.1429C16.4286 9.28571 17.8571 7.14286 20.7143 7.14286C22.7857 7.14286 23.5714 7.85714 23.5714 7.85714V10.7143Z" fill="white"/>
</svg>
